<?xml version="1.0" encoding="utf-8"?>
<svg xmlns="http://www.w3.org/2000/svg">

<symbol id="icon-android" viewBox="0 0 512 512">
<path d="m293 157c0 4-3 6-7 6-3 0-6-2-6-6 0-3 3-6 6-6s7 3 7 6zm-69-6c-4 0-6 3-6 6 0 4 2 6 6 6 3 0 6-2 6-6 0-3-3-6-6-6zm281 104c0 138-112 250-250 250s-250-112-250-250 112-250 250-250 250 112 250 250zm-337-36c0-10-9-18-19-18-10 0-19 8-19 18v77c0 10 9 17 19 17 10 0 18-7 18-17zm162-18h-150v118c0 11 9 19 19 19h6v45c0 10 9 18 19 18 10 0 18-8 19-18v-45h24v45c0 10 9 18 19 18 10 0 19-8 19-18v-45h6c10 0 19-8 19-19zm0-13c0-28-15-47-38-60l12-23c0-2 0-3-1-4-1-1-3 0-3 1l-12 24c-19-10-45-11-66 0l-12-24c0-1-2-2-3-1-1 1-1 2-1 4l12 23c-23 13-38 32-38 60zm50 31c0-10-9-18-19-18-10 0-18 8-18 18v77c0 10 8 17 18 17 10 0 19-7 19-17z"/>
</symbol>

<symbol id="icon-github" viewBox="0 0 512 512">
<path d="m255 5c-138 0-250 112-250 250 0 110 72 204 171 237 12 3 17-5 17-12v-46c-70 15-85-30-85-30-11-29-27-36-27-36-23-16 1-16 1-16 26 2 39 26 39 26 22 38 58 27 73 21 2-16 8-27 15-33-55-7-114-28-114-124 0-27 10-50 26-67-2-6-11-32 3-66 0 0 21-7 68 25 20-5 42-8 63-8 21 0 43 3 63 8 47-32 68-25 68-25 14 34 5 60 3 66 16 17 26 40 26 67 0 96-59 117-115 123 9 8 18 23 18 47v68c0 7 4 15 16 12 99-33 171-127 171-237 0-138-112-250-250-250z"/>
</symbol>

<symbol id="icon-twitter" viewBox="0 0 512 512">
<path d="m255 4c-138 0-250 112-250 250s112 250 250 250 250-112 250-250-112-250-250-250zm126 201c4 84-59 178-170 178-33 0-65-10-91-27 31 4 63-5 88-25-26 0-48-18-56-41 10 1 19 1 27-1-28-6-48-32-48-60 8 5 18 7 27 8-26-18-34-53-18-80 29 36 73 60 123 62-9-37 20-73 59-73 17 0 32 7 43 19 14-3 27-8 38-15-4 14-14 26-26 33 12-1 24-4 34-9-8 12-18 22-30 31z"/>
</symbol>

<symbol id="icon-linkedin" viewBox="0 0 512 512">
<path d="m255 4c-138 0-250 112-250 250s112 250 250 250 250-112 250-250-112-250-250-250zm-42 333h-41v-125h41zm-20-143c-13 0-23-11-23-23 0-13 10-23 23-23s22 10 22 23c0 12-10 23-22 23zm166 143h-41v-59c0-39-42-36-42 0v59h-42v-125h42v23c18-34 83-36 83 32z"/>
</symbol>

<symbol id="icon-facebook" viewBox="0 0 512 512">
<path d="m255 5c-138 0-250 112-250 250s112 250 250 250 250-112 250-250-112-250-250-250zm63 167h-29c-11 0-13 4-13 16v25h42l-5 42h-37v146h-63v-146h-41v-42h41v-48c0-37 20-56 63-56h42z"/>
</symbol>

<symbol id="icon-bayrak" viewBox="0 0 512 512">
<path d="m41 234c0-86 69-155 155-155 59 0 108 31 135 72-24-24-59-41-93-41-69 0-125 55-125 124s56 128 125 128c34 0 69-17 93-41-27 41-76 72-135 72-86 0-155-72-155-159zm432-45-55 18-35-45v55l-52 17 52 21v55l35-45 55 18-34-49z"/>
</symbol>

<symbol id="icon-d3" viewBox="0 0 512 512">
<path d="m31 24h37a220 220 0 1 1 0 440h-37v-97h37a123 123 0 1 0 0-246h-37zm175 0h155a134 134 0 0 1 103 220 134 134 0 0 1-103 220h-155a259 259 0 0 0 91-97h64a37 37 0 1 0 0-75h-38a259 259 0 0 0 0-96h38a37 37 0 1 0 0-75h-64a259 259 0 0 0-91-97z"/>
</symbol>

</svg>